<mxfile host="app.diagrams.net" modified="2023-05-21T16:12:44.308Z" agent="Mozilla/5.0 (Macintosh; Intel Mac OS X 10_15_7) AppleWebKit/537.36 (KHTML, like Gecko) Chrome/113.0.0.0 Safari/537.36" etag="yVeFjT3Rn4QBp6ECmTd-" version="21.3.2" type="device">
  <diagram name="Page-1" id="G31c2uQ5Gc4XUBU4Gcc3">
    <mxGraphModel dx="954" dy="648" grid="1" gridSize="10" guides="1" tooltips="1" connect="1" arrows="1" fold="1" page="1" pageScale="1" pageWidth="827" pageHeight="1169" math="0" shadow="0">
      <root>
        <mxCell id="0" />
        <mxCell id="1" parent="0" />
        <mxCell id="BmeZAI3h6JkE_a3gq7JH-9" style="edgeStyle=orthogonalEdgeStyle;rounded=0;orthogonalLoop=1;jettySize=auto;html=1;exitX=0.5;exitY=1;exitDx=0;exitDy=0;entryX=0.5;entryY=0;entryDx=0;entryDy=0;" edge="1" parent="1" source="BmeZAI3h6JkE_a3gq7JH-1" target="BmeZAI3h6JkE_a3gq7JH-3">
          <mxGeometry relative="1" as="geometry" />
        </mxCell>
        <mxCell id="BmeZAI3h6JkE_a3gq7JH-1" value="Начало" style="rounded=1;whiteSpace=wrap;html=1;" vertex="1" parent="1">
          <mxGeometry x="320" y="40" width="120" height="30" as="geometry" />
        </mxCell>
        <mxCell id="BmeZAI3h6JkE_a3gq7JH-2" value="Конец" style="rounded=1;whiteSpace=wrap;html=1;" vertex="1" parent="1">
          <mxGeometry x="490" y="500" width="120" height="35" as="geometry" />
        </mxCell>
        <mxCell id="BmeZAI3h6JkE_a3gq7JH-10" style="edgeStyle=orthogonalEdgeStyle;rounded=0;orthogonalLoop=1;jettySize=auto;html=1;exitX=0.5;exitY=1;exitDx=0;exitDy=0;entryX=0.5;entryY=0;entryDx=0;entryDy=0;" edge="1" parent="1" source="BmeZAI3h6JkE_a3gq7JH-3" target="BmeZAI3h6JkE_a3gq7JH-13">
          <mxGeometry relative="1" as="geometry">
            <Array as="points">
              <mxPoint x="380" y="150" />
              <mxPoint x="495" y="150" />
              <mxPoint x="495" y="80" />
              <mxPoint x="590" y="80" />
            </Array>
          </mxGeometry>
        </mxCell>
        <mxCell id="BmeZAI3h6JkE_a3gq7JH-3" value="arr&lt;br&gt;size" style="shape=parallelogram;perimeter=parallelogramPerimeter;whiteSpace=wrap;html=1;fixedSize=1;" vertex="1" parent="1">
          <mxGeometry x="320" y="90" width="120" height="40" as="geometry" />
        </mxCell>
        <mxCell id="BmeZAI3h6JkE_a3gq7JH-4" style="edgeStyle=orthogonalEdgeStyle;rounded=0;orthogonalLoop=1;jettySize=auto;html=1;exitX=0.5;exitY=1;exitDx=0;exitDy=0;" edge="1" parent="1" source="BmeZAI3h6JkE_a3gq7JH-3" target="BmeZAI3h6JkE_a3gq7JH-3">
          <mxGeometry relative="1" as="geometry" />
        </mxCell>
        <mxCell id="BmeZAI3h6JkE_a3gq7JH-11" style="edgeStyle=orthogonalEdgeStyle;rounded=0;orthogonalLoop=1;jettySize=auto;html=1;exitX=0.5;exitY=1;exitDx=0;exitDy=0;entryX=0.5;entryY=0;entryDx=0;entryDy=0;" edge="1" parent="1" source="BmeZAI3h6JkE_a3gq7JH-5" target="BmeZAI3h6JkE_a3gq7JH-6">
          <mxGeometry relative="1" as="geometry" />
        </mxCell>
        <mxCell id="BmeZAI3h6JkE_a3gq7JH-5" value="i = 0&lt;br&gt;sum = 0&lt;br&gt;avg = 0" style="rounded=0;whiteSpace=wrap;html=1;" vertex="1" parent="1">
          <mxGeometry x="320" y="180" width="120" height="60" as="geometry" />
        </mxCell>
        <mxCell id="BmeZAI3h6JkE_a3gq7JH-12" value="YES" style="edgeStyle=orthogonalEdgeStyle;rounded=0;orthogonalLoop=1;jettySize=auto;html=1;exitX=0.5;exitY=1;exitDx=0;exitDy=0;entryX=0.5;entryY=0;entryDx=0;entryDy=0;" edge="1" parent="1" source="BmeZAI3h6JkE_a3gq7JH-6" target="BmeZAI3h6JkE_a3gq7JH-7">
          <mxGeometry relative="1" as="geometry" />
        </mxCell>
        <mxCell id="BmeZAI3h6JkE_a3gq7JH-18" value="NO" style="edgeStyle=orthogonalEdgeStyle;rounded=0;orthogonalLoop=1;jettySize=auto;html=1;exitX=1;exitY=0.5;exitDx=0;exitDy=0;entryX=0;entryY=0.5;entryDx=0;entryDy=0;" edge="1" parent="1" source="BmeZAI3h6JkE_a3gq7JH-6" target="BmeZAI3h6JkE_a3gq7JH-17">
          <mxGeometry relative="1" as="geometry" />
        </mxCell>
        <mxCell id="BmeZAI3h6JkE_a3gq7JH-6" value="i &amp;lt; size" style="rhombus;whiteSpace=wrap;html=1;" vertex="1" parent="1">
          <mxGeometry x="340" y="270" width="80" height="80" as="geometry" />
        </mxCell>
        <mxCell id="BmeZAI3h6JkE_a3gq7JH-8" style="edgeStyle=orthogonalEdgeStyle;rounded=0;orthogonalLoop=1;jettySize=auto;html=1;exitX=0.5;exitY=1;exitDx=0;exitDy=0;entryX=0.5;entryY=0;entryDx=0;entryDy=0;" edge="1" parent="1" source="BmeZAI3h6JkE_a3gq7JH-7" target="BmeZAI3h6JkE_a3gq7JH-6">
          <mxGeometry relative="1" as="geometry">
            <Array as="points">
              <mxPoint x="390" y="460" />
              <mxPoint x="280" y="460" />
              <mxPoint x="280" y="250" />
              <mxPoint x="380" y="250" />
            </Array>
          </mxGeometry>
        </mxCell>
        <mxCell id="BmeZAI3h6JkE_a3gq7JH-7" value="i = i + 1&lt;br&gt;sum = sum + arr[i]" style="rounded=0;whiteSpace=wrap;html=1;" vertex="1" parent="1">
          <mxGeometry x="320" y="390" width="120" height="60" as="geometry" />
        </mxCell>
        <mxCell id="BmeZAI3h6JkE_a3gq7JH-14" value="YES" style="edgeStyle=orthogonalEdgeStyle;rounded=0;orthogonalLoop=1;jettySize=auto;html=1;exitX=0.5;exitY=1;exitDx=0;exitDy=0;entryX=0.5;entryY=0;entryDx=0;entryDy=0;" edge="1" parent="1" source="BmeZAI3h6JkE_a3gq7JH-13" target="BmeZAI3h6JkE_a3gq7JH-5">
          <mxGeometry relative="1" as="geometry" />
        </mxCell>
        <mxCell id="BmeZAI3h6JkE_a3gq7JH-16" style="edgeStyle=orthogonalEdgeStyle;rounded=0;orthogonalLoop=1;jettySize=auto;html=1;exitX=1;exitY=0.5;exitDx=0;exitDy=0;entryX=0.5;entryY=0;entryDx=0;entryDy=0;" edge="1" parent="1" source="BmeZAI3h6JkE_a3gq7JH-13" target="BmeZAI3h6JkE_a3gq7JH-15">
          <mxGeometry relative="1" as="geometry" />
        </mxCell>
        <mxCell id="BmeZAI3h6JkE_a3gq7JH-13" value="size != 0" style="rhombus;whiteSpace=wrap;html=1;" vertex="1" parent="1">
          <mxGeometry x="550" y="100" width="80" height="80" as="geometry" />
        </mxCell>
        <mxCell id="BmeZAI3h6JkE_a3gq7JH-22" style="edgeStyle=orthogonalEdgeStyle;rounded=0;orthogonalLoop=1;jettySize=auto;html=1;exitX=0.5;exitY=1;exitDx=0;exitDy=0;entryX=0.5;entryY=0;entryDx=0;entryDy=0;" edge="1" parent="1" source="BmeZAI3h6JkE_a3gq7JH-15" target="BmeZAI3h6JkE_a3gq7JH-2">
          <mxGeometry relative="1" as="geometry" />
        </mxCell>
        <mxCell id="BmeZAI3h6JkE_a3gq7JH-15" value="Empty array" style="shape=parallelogram;perimeter=parallelogramPerimeter;whiteSpace=wrap;html=1;fixedSize=1;" vertex="1" parent="1">
          <mxGeometry x="650" y="390" width="120" height="60" as="geometry" />
        </mxCell>
        <mxCell id="BmeZAI3h6JkE_a3gq7JH-20" style="edgeStyle=orthogonalEdgeStyle;rounded=0;orthogonalLoop=1;jettySize=auto;html=1;exitX=0.5;exitY=1;exitDx=0;exitDy=0;" edge="1" parent="1" source="BmeZAI3h6JkE_a3gq7JH-17" target="BmeZAI3h6JkE_a3gq7JH-19">
          <mxGeometry relative="1" as="geometry" />
        </mxCell>
        <mxCell id="BmeZAI3h6JkE_a3gq7JH-17" value="avg = sum / size" style="rounded=0;whiteSpace=wrap;html=1;" vertex="1" parent="1">
          <mxGeometry x="490" y="290" width="120" height="40" as="geometry" />
        </mxCell>
        <mxCell id="BmeZAI3h6JkE_a3gq7JH-21" style="edgeStyle=orthogonalEdgeStyle;rounded=0;orthogonalLoop=1;jettySize=auto;html=1;exitX=0.5;exitY=1;exitDx=0;exitDy=0;entryX=0.5;entryY=0;entryDx=0;entryDy=0;" edge="1" parent="1" source="BmeZAI3h6JkE_a3gq7JH-19" target="BmeZAI3h6JkE_a3gq7JH-2">
          <mxGeometry relative="1" as="geometry" />
        </mxCell>
        <mxCell id="BmeZAI3h6JkE_a3gq7JH-19" value="avg" style="shape=parallelogram;perimeter=parallelogramPerimeter;whiteSpace=wrap;html=1;fixedSize=1;" vertex="1" parent="1">
          <mxGeometry x="490" y="390" width="120" height="60" as="geometry" />
        </mxCell>
      </root>
    </mxGraphModel>
  </diagram>
</mxfile>
